<svg width="400" height="400" viewBox="0 0 400 400" fill="none" xmlns="http://www.w3.org/2000/svg">
<g clip-path="url(#clip0_18_2)">
<path d="M277.914 40.1174C286.228 40.1174 292.968 31.1368 292.968 20.0587C292.968 8.98058 286.228 0 277.914 0C269.599 0 262.859 8.98058 262.859 20.0587C262.859 31.1368 269.599 40.1174 277.914 40.1174Z" fill="#FF6584"/>
<path d="M318.268 382.997L312.846 383.147L309.824 354.734L317.826 354.513L318.268 382.997Z" fill="#FFB6B6"/>
<path d="M301.158 395.156C301.186 396.939 302.293 398.354 303.631 398.32L314.411 398.021L316.186 392.853L316.991 397.947L321.058 397.838L319.632 379.612L318.215 379.542L312.432 379.236L310.567 379.142L310.648 384.311L302.162 392.471C301.516 393.092 301.141 394.096 301.158 395.156Z" fill="#2F2E41"/>
<path d="M354.756 382.997L349.333 383.147L346.311 354.734L354.313 354.513L354.756 382.997Z" fill="#FFB6B6"/>
<path d="M337.645 395.156C337.674 396.939 338.78 398.354 340.119 398.32L350.898 398.021L352.673 392.853L353.478 397.947L357.545 397.838L356.119 379.612L354.702 379.542L348.92 379.236L347.054 379.142L347.135 384.311L338.649 392.471C338.003 393.092 337.628 394.096 337.645 395.156Z" fill="#2F2E41"/>
<path d="M323.733 164.545L353.586 163.44L351.928 166.755L355.705 171.727C355.705 171.727 369.342 196.588 365.196 219.239C361.049 241.889 363.384 375.8 363.384 375.8L339.074 372.27L341.769 237.194L321.867 288.02L327.654 370.417L306.941 370.336L300.307 281.39L323.733 164.545Z" fill="#2F2E41"/>
<path d="M198.851 57.6798C198.964 58.0486 199.352 58.0486 199.464 57.6797C200.248 55.1059 201.363 52.2235 202.576 50.0208C202.771 49.6681 202.503 49.1969 202.194 49.3457L199.593 50.5995V29.1458H198.722V50.5995L196.121 49.3455C195.812 49.1967 195.544 49.668 195.738 50.0206C196.952 52.2234 198.067 55.1059 198.851 57.6798Z" fill="#3F3D56"/>
<path d="M215.908 79.7693C215.824 80.1512 216.128 80.4726 216.388 80.2768C218.203 78.9106 220.422 77.5778 222.4 76.8583C222.717 76.7431 222.727 76.1522 222.416 76.0129L219.794 74.8394L229.807 58.0392L229.125 57.3177L219.112 74.1179L217.66 70.9798C217.487 70.6075 217.058 70.7546 217.045 71.1917C216.967 73.9222 216.496 77.1039 215.908 79.7693Z" fill="#3F3D56"/>
<path d="M279.506 118.968L295.584 116.498L297.924 128.54L280.855 130.345C280.492 130.846 280.069 131.286 279.588 131.642C276.973 133.578 273.674 132.323 272.221 128.838C270.768 125.353 271.711 120.958 274.326 119.022C275.994 117.788 277.938 117.856 279.506 118.968Z" fill="#FFB6B6"/>
<path d="M356.492 91.1935L350.199 78.4695C349.055 79.6798 348.052 80.8966 347.294 81.9731L345.989 83.17L341.774 88.1913L329.841 102.386L325.872 107.113L321.441 108.15L311.66 110.443L296.849 115.754L285.943 116.695C285.938 116.989 285.938 117.43 285.938 117.978C285.933 120.833 285.983 126.61 286.404 129.76C286.55 130.856 286.741 131.632 286.991 131.866C287.072 131.939 295.424 128.464 295.846 128.457C299.243 128.451 304.921 129.693 316.377 127.707C323.182 126.517 329.174 125.434 331.693 124.972L331.748 124.959L333.569 123.782L353.566 110.878L359.603 106.98C359.101 101.591 358.063 96.275 356.492 91.1935Z" fill="#A463FF"/>
<path d="M11.3861 18.6819C5.09771 18.6819 0 25.4743 0 33.853V290.811H1.00362V124.11C1.00362 66.6222 35.9797 20.0192 79.1253 20.0192L278.687 19.776L278.504 18.6819H11.3861Z" fill="#3F3D56"/>
<path d="M64.0841 61.3771C66.4278 61.3771 68.3277 58.7892 68.3277 55.5968C68.3277 52.4044 66.4278 49.8165 64.0841 49.8165C61.7404 49.8165 59.8405 52.4044 59.8405 55.5968C59.8405 58.7892 61.7404 61.3771 64.0841 61.3771Z" fill="#3F3D56"/>
<path d="M78.7438 61.3771C81.0875 61.3771 82.9874 58.7892 82.9874 55.5968C82.9874 52.4044 81.0875 49.8165 78.7438 49.8165C76.4002 49.8165 74.5002 52.4044 74.5002 55.5968C74.5002 58.7892 76.4002 61.3771 78.7438 61.3771Z" fill="#3F3D56"/>
<path d="M93.4036 61.3771C95.7473 61.3771 97.6472 58.7892 97.6472 55.5968C97.6472 52.4044 95.7473 49.8165 93.4036 49.8165C91.0599 49.8165 89.16 52.4044 89.16 55.5968C89.16 58.7892 91.0599 61.3771 93.4036 61.3771Z" fill="#3F3D56"/>
<path d="M167.36 123.695C161.072 123.695 155.974 130.488 155.974 138.866L155.974 248.728H156.978V229.124C156.978 171.636 191.954 125.033 235.099 125.033L307.703 124.789L307.52 123.695L167.36 123.695Z" fill="#F2F2F2"/>
<path d="M209.519 191.876C208.966 191.876 208.515 192.476 208.515 193.214V213.941C208.515 214.678 208.966 215.278 209.519 215.278C210.073 215.278 210.523 214.678 210.523 213.941V193.214C210.523 192.476 210.073 191.876 209.519 191.876Z" fill="#3F3D56"/>
<path d="M219.355 211.849C222.809 211.849 225.609 208.197 225.609 203.691C225.609 199.186 222.809 195.534 219.355 195.534C215.901 195.534 213.101 199.186 213.101 203.691C213.101 208.197 215.901 211.849 219.355 211.849Z" fill="#A463FF"/>
<path d="M269.492 200.9L235.828 200.9C234.674 200.9 233.734 199.648 233.734 198.11C233.734 196.571 234.674 195.319 235.828 195.319L269.492 195.319C270.647 195.319 271.587 196.571 271.587 198.11C271.587 199.648 270.647 200.9 269.492 200.9Z" fill="#F2F2F2"/>
<path d="M295.764 210.346L235.828 210.346C234.674 210.346 233.734 209.094 233.734 207.555C233.734 206.017 234.674 204.765 235.828 204.765L295.764 204.765C296.919 204.765 297.858 206.017 297.858 207.555C297.858 209.094 296.919 210.346 295.764 210.346Z" fill="#F2F2F2"/>
<path d="M212.62 156.321C214.963 156.321 216.863 153.734 216.863 150.541C216.863 147.349 214.963 144.761 212.62 144.761C210.276 144.761 208.376 147.349 208.376 150.541C208.376 153.734 210.276 156.321 212.62 156.321Z" fill="#F2F2F2"/>
<path d="M227.279 156.321C229.623 156.321 231.523 153.734 231.523 150.541C231.523 147.349 229.623 144.761 227.279 144.761C224.936 144.761 223.036 147.349 223.036 150.541C223.036 153.734 224.936 156.321 227.279 156.321Z" fill="#F2F2F2"/>
<path d="M241.939 156.321C244.283 156.321 246.183 153.734 246.183 150.541C246.183 147.349 244.283 144.761 241.939 144.761C239.595 144.761 237.695 147.349 237.695 150.541C237.695 153.734 239.595 156.321 241.939 156.321Z" fill="#F2F2F2"/>
<path d="M45.3405 113.268C44.787 113.268 44.3369 113.868 44.3369 114.606V135.333C44.3369 136.07 44.787 136.67 45.3405 136.67C45.894 136.67 46.3442 136.07 46.3442 135.333V114.606C46.3442 113.868 45.894 113.268 45.3405 113.268Z" fill="#3F3D56"/>
<path d="M55.1766 133.241C58.6306 133.241 61.4307 129.589 61.4307 125.083C61.4307 120.578 58.6306 116.926 55.1766 116.926C51.7225 116.926 48.9224 120.578 48.9224 125.083C48.9224 129.589 51.7225 133.241 55.1766 133.241Z" fill="#A463FF"/>
<path d="M105.314 122.292H71.6499C70.495 122.292 69.5554 121.04 69.5554 119.502C69.5554 117.963 70.495 116.711 71.6499 116.711H105.314C106.469 116.711 107.408 117.963 107.408 119.502C107.408 121.04 106.469 122.292 105.314 122.292Z" fill="#F2F2F2"/>
<path d="M131.585 131.738H71.6499C70.495 131.738 69.5554 130.486 69.5554 128.947C69.5554 127.409 70.495 126.157 71.6499 126.157H131.585C132.74 126.157 133.68 127.409 133.68 128.947C133.68 130.486 132.74 131.738 131.585 131.738Z" fill="#F2F2F2"/>
<path d="M45.3405 170.77C44.787 170.77 44.3369 171.37 44.3369 172.107V192.834C44.3369 193.572 44.787 194.172 45.3405 194.172C45.894 194.172 46.3442 193.572 46.3442 192.834V172.107C46.3442 171.37 45.894 170.77 45.3405 170.77Z" fill="#3F3D56"/>
<path d="M55.1766 190.742C58.6306 190.742 61.4307 187.09 61.4307 182.585C61.4307 178.079 58.6306 174.427 55.1766 174.427C51.7225 174.427 48.9224 178.079 48.9224 182.585C48.9224 187.09 51.7225 190.742 55.1766 190.742Z" fill="#A463FF"/>
<path d="M105.314 179.794H71.6499C70.495 179.794 69.5554 178.542 69.5554 177.003C69.5554 175.464 70.495 174.212 71.6499 174.212H105.314C106.469 174.212 107.408 175.464 107.408 177.003C107.408 178.542 106.469 179.794 105.314 179.794Z" fill="#F2F2F2"/>
<path d="M131.585 189.24H71.6499C70.495 189.24 69.5554 187.988 69.5554 186.449C69.5554 184.91 70.495 183.658 71.6499 183.658H131.585C132.74 183.658 133.68 184.91 133.68 186.449C133.68 187.988 132.74 189.24 131.585 189.24Z" fill="#F2F2F2"/>
<path d="M45.3405 228.271C44.787 228.271 44.3369 228.871 44.3369 229.609V250.336C44.3369 251.074 44.787 251.673 45.3405 251.673C45.894 251.673 46.3442 251.074 46.3442 250.336V229.609C46.3442 228.871 45.894 228.271 45.3405 228.271Z" fill="#3F3D56"/>
<path d="M55.1766 248.244C58.6306 248.244 61.4307 244.592 61.4307 240.086C61.4307 235.581 58.6306 231.929 55.1766 231.929C51.7225 231.929 48.9224 235.581 48.9224 240.086C48.9224 244.592 51.7225 248.244 55.1766 248.244Z" fill="#A463FF"/>
<path d="M105.314 237.296H71.6499C70.495 237.296 69.5554 236.044 69.5554 234.505C69.5554 232.966 70.495 231.714 71.6499 231.714H105.314C106.469 231.714 107.408 232.966 107.408 234.505C107.408 236.044 106.469 237.296 105.314 237.296Z" fill="#F2F2F2"/>
<path d="M131.585 246.741H71.6499C70.495 246.741 69.5554 245.489 69.5554 243.95C69.5554 242.412 70.495 241.16 71.6499 241.16H131.585C132.74 241.16 133.68 242.412 133.68 243.95C133.68 245.489 132.74 246.741 131.585 246.741Z" fill="#F2F2F2"/>
<path d="M361.583 185.959C360.962 192.256 328.789 177.347 324.95 174.592C317.77 169.451 325.283 174.724 325.283 174.724L324.449 143.167L323.578 124.364C323.578 124.364 323.092 119.369 322.073 112.997C321.842 111.566 321.596 109.908 321.441 108.15C320.999 103.075 321.335 97.1776 325.084 93.6072L338.156 67.6379L344.594 67.1364L350.199 78.4695L356.492 91.1935C358.063 96.275 359.101 101.591 359.603 106.98C359.839 109.5 359.96 112.041 359.96 114.589C359.96 119.075 359.593 123.575 358.851 128.001L354.911 142.718C354.911 142.718 354.416 145.208 356.146 146.602C359.656 149.431 352.55 157.208 356.898 166.841C356.898 166.841 356.492 171.268 358.429 171.655C360.366 172.05 361.844 183.307 361.583 185.959Z" fill="#A463FF"/>
<path d="M299.08 201.088L308.626 183.673L316.854 189.551L306.269 207.485C306.299 208.181 306.255 208.894 306.125 209.606C305.418 213.48 302.488 215.856 299.581 214.915C296.674 213.973 294.89 210.069 295.597 206.195C296.047 203.725 297.404 201.868 299.08 201.088Z" fill="#FFB6B6"/>
<path d="M339.398 91.2305C337.22 89.143 334.669 87.6665 331.862 87.0113C328.032 86.121 325.884 93.4647 325.039 100.627C324.651 103.947 324.536 107.229 324.67 109.625L324.444 111.721L324.312 122.571L324.001 147.654L314.412 166.569L310.398 179.273L302.194 193.245C302.354 193.45 302.599 193.749 302.901 194.125C304.474 196.064 307.686 199.932 309.711 201.657C310.414 202.252 310.969 202.59 311.268 202.507C311.362 202.479 317.138 195.066 317.423 194.651C319.339 191.872 319.717 188.142 325.51 177.302C330.787 167.436 335.932 157.625 337.791 154.075L337.825 154.011L346.177 117.306L346.937 113.979C347.747 104.867 344.666 96.2726 339.398 91.2305Z" fill="#A463FF"/>
<path d="M334.662 91.7812C334.646 91.7729 334.632 91.763 334.617 91.7547C334.488 91.7695 334.36 91.7801 334.235 91.7812H334.662Z" fill="#2F2E41"/>
<path d="M338.407 62.9569C346.469 62.9569 353.004 54.2492 353.004 43.5079C353.004 32.7665 346.469 24.0589 338.407 24.0589C330.346 24.0589 323.811 32.7665 323.811 43.5079C323.811 54.2492 330.346 62.9569 338.407 62.9569Z" fill="#FFB6B6"/>
<path d="M318.645 38.1021C317.659 28.6736 320.532 25.7891 325.028 24.9346C333.922 18.7761 335.959 20.3242 338.778 20.9926L339.814 20.6956C342.994 19.784 344.148 20.1729 346.976 21.5973C352.941 24.5942 356.86 32.1935 357.293 40.6673C357.592 46.509 356.218 47.4184 358.759 52.1625C360.885 56.1231 359.259 61.682 355.691 62.7049L352.37 69.3951C351.561 68.0331 350.915 66.6058 350.182 64.8173C349.893 66.4131 349.861 68.2403 350.012 70.0711C346.705 72.2655 343.095 73.1735 339.267 73.1515C338.651 72.0579 338.099 70.8401 338.172 69.4682C337.959 70.8429 337.699 72.2124 337.654 73.6137C335.246 71.5471 333.255 72.1543 331.665 75.3306C327.651 70.8969 327.336 60.738 332.108 58.1933C336.146 56.0404 329.777 40.9694 325.435 40.6621C325.407 40.6601 324.25 46.4871 324.209 46.3775C323.596 44.7445 323.876 43.8494 323.144 42.0609C322.903 43.4062 322.838 44.9129 322.917 46.4467C321.883 46.1456 320.835 45.705 319.778 45.1178C318.551 42.8986 318.077 40.5736 318.645 38.1021Z" fill="#2F2E41"/>
<path d="M372.772 388.411C373.809 388.497 374.382 386.781 373.598 385.781L373.52 385.368C373.53 385.334 373.54 385.301 373.551 385.268C374.599 381.937 378.152 381.96 379.192 385.296C380.114 388.257 381.289 391.223 381.578 394.353C381.708 395.735 381.65 397.143 381.419 398.499C383.581 392.207 384.719 385.336 384.719 378.427C384.719 376.69 384.648 374.954 384.502 373.223C384.382 371.806 384.216 370.398 384.003 369.003C382.845 361.463 380.34 354.282 376.726 348.283C374.989 347.018 373.54 345.04 372.665 342.669C372.351 341.814 372.104 340.894 371.988 339.957C372.185 339.992 372.733 335.98 372.584 335.733C372.86 335.176 373.353 334.899 373.654 334.356C375.15 331.652 377.212 332.124 378.288 335.798C380.588 337.344 380.61 339.909 379.199 342.375C378.302 343.944 378.178 346.068 377.391 347.748C377.472 347.886 377.556 348.02 377.637 348.158C379.123 350.697 380.408 353.427 381.491 356.294C381.185 353.107 381.637 349.268 382.408 346.793C383.285 343.973 384.929 341.599 386.377 339.161C388.117 336.233 391.683 337.511 391.99 341.222C391.993 341.258 391.996 341.294 391.998 341.33C391.783 341.492 391.573 341.664 391.367 341.845C390.193 342.88 390.599 345.304 391.99 345.59L392.021 345.597C391.943 346.629 391.81 347.653 391.616 348.659C393.474 358.231 389.463 361.717 383.737 361.874C383.61 361.96 383.487 362.046 383.361 362.128C383.941 364.305 384.404 366.538 384.748 368.8C385.056 370.8 385.27 372.821 385.39 374.851C385.539 377.412 385.526 379.986 385.364 382.542L385.374 382.451C385.785 379.636 386.933 377.006 388.598 375.183C391.08 372.467 394.586 371.467 397.264 369.283C398.553 368.232 400.204 369.59 399.979 371.581L399.968 371.677C399.57 371.893 399.181 372.143 398.805 372.424C398.59 372.585 398.379 372.757 398.173 372.939C396.999 373.973 397.405 376.398 398.796 376.684L398.827 376.69C398.85 376.695 398.87 376.699 398.892 376.703C398.208 378.867 397.255 380.875 396.063 382.607C394.901 390.963 389.913 391.756 384.576 389.322H384.573C383.99 392.708 383.137 396.016 382.042 399.168H372.999C372.967 399.035 372.937 398.896 372.908 398.763C373.744 398.832 374.587 398.767 375.41 398.564C374.739 397.467 374.069 396.361 373.398 395.265C373.381 395.243 373.368 395.221 373.355 395.2C373.015 394.638 372.672 394.081 372.331 393.52L372.331 393.519C372.31 391.796 372.465 390.078 372.772 388.411Z" fill="#F2F2F2"/>
<path d="M271.632 399.204C271.632 399.646 271.898 400 272.229 400H399.333C399.664 400 399.93 399.646 399.93 399.204C399.93 398.763 399.664 398.409 399.333 398.409H272.229C271.898 398.409 271.632 398.763 271.632 399.204Z" fill="#CCCCCC"/>
<path d="M207.762 94.086H190.841C189.79 94.086 188.935 92.9471 188.935 91.5473C186.698 82.834 186.742 74.2962 188.935 65.9236C188.935 64.5237 189.79 63.3849 190.841 63.3849H207.762C208.813 63.3849 209.668 64.5237 209.668 65.9236V91.5473C209.668 92.9471 208.813 94.086 207.762 94.086Z" fill="#E6E6E6"/>
<path d="M194.466 64.1413C191.725 64.1413 189.503 67.1021 189.503 70.7544V91.0036C189.503 92.2882 190.285 93.3296 191.249 93.3296H200.606C205.297 93.3296 209.1 88.2627 209.1 82.0125V66.4672C209.1 65.1826 208.318 64.1413 207.354 64.1413H194.466Z" fill="white"/>
<path d="M203.242 71.5876H195.32C195.12 71.5876 194.958 71.3711 194.958 71.105C194.958 70.8388 195.12 70.6224 195.32 70.6224H203.242C203.442 70.6224 203.605 70.8389 203.605 71.105C203.605 71.3711 203.442 71.5876 203.242 71.5876Z" fill="#E6E6E6"/>
<path d="M203.242 81.8795H195.32C195.12 81.8795 194.958 81.6629 194.958 81.3968C194.958 81.1307 195.12 80.9142 195.32 80.9142H203.242C203.442 80.9142 203.605 81.1307 203.605 81.3968C203.605 81.6629 203.442 81.8795 203.242 81.8795Z" fill="#E6E6E6"/>
<path d="M207.494 76.7369H191.069C190.869 76.7369 190.706 76.5204 190.706 76.2542C190.706 75.9881 190.869 75.7717 191.069 75.7717H207.494C207.693 75.7717 207.856 75.9881 207.856 76.2542C207.856 76.5204 207.693 76.7369 207.494 76.7369Z" fill="#E6E6E6"/>
<path d="M207.687 86.0641H200.834C200.634 86.0641 200.471 85.8475 200.471 85.5814C200.471 85.3153 200.634 85.0988 200.834 85.0988H207.687C207.887 85.0988 208.05 85.3153 208.05 85.5814C208.05 85.8476 207.887 86.0641 207.687 86.0641Z" fill="#E6E6E6"/>
</g>
<defs>
<clipPath id="clip0_18_2">
<rect width="400" height="400" fill="white"/>
</clipPath>
</defs>
</svg>
