<svg width="35" height="35" viewBox="0 0 35 35" fill="none" xmlns="http://www.w3.org/2000/svg">
<g clip-path="url(#clip0_22_103)">
<path d="M16.0417 34.9563C11.7988 34.9563 7.72962 33.2708 4.72943 30.2706C1.72924 27.2704 0.0437489 23.2013 0.0437489 18.9584C0.0437489 14.7155 1.72924 10.6463 4.72943 7.64613C7.72962 4.64594 11.7988 2.96045 16.0417 2.96045H17.5L17.519 4.41878L17.5 17.5H32.0396V18.9584C32.0349 23.1999 30.348 27.2663 27.3488 30.2655C24.3496 33.2647 20.2832 34.9516 16.0417 34.9563ZM14.6008 5.95732C12.1522 6.22892 9.83012 7.18645 7.90177 8.71969C5.97341 10.2529 4.51723 12.2995 3.70083 14.6239C2.88444 16.9484 2.74102 19.4561 3.28709 21.8584C3.83317 24.2607 5.04653 26.46 6.78751 28.2031C8.52849 29.9462 10.7263 31.1622 13.128 31.7112C15.5296 32.2602 18.0375 32.1198 20.3629 31.3062C22.6883 30.4926 24.7367 29.0389 26.2722 27.1124C27.8078 25.1859 28.7681 22.865 29.0427 20.4167H14.5833L14.6008 5.95732Z" fill="white"/>
<path d="M23.361 3.33664C25.3643 3.86073 27.1919 4.90851 28.6563 6.37242C30.1208 7.83633 31.1692 9.66361 31.694 11.6666H23.361V3.33664ZM20.4444 0.0495605V14.5833H34.981C34.9622 10.734 33.4246 7.04776 30.7024 4.32613C27.9802 1.6045 24.2937 0.0675795 20.4444 0.0495605Z" fill="white"/>
</g>
<defs>
<clipPath id="clip0_22_103">
<rect width="35" height="35" fill="white"/>
</clipPath>
</defs>
</svg>
