<svg width="35" height="35" viewBox="0 0 35 35" fill="none" xmlns="http://www.w3.org/2000/svg">
<g clip-path="url(#clip0_22_106)">
<path d="M30.625 0H4.375C3.21468 0 2.10188 0.460936 1.28141 1.28141C0.460936 2.10188 0 3.21468 0 4.375L0 29.1667H10.0625L15.6158 33.8596C16.1423 34.3045 16.8093 34.5486 17.4985 34.5486C18.1878 34.5486 18.8548 34.3045 19.3813 33.8596L24.9375 29.1667H35V4.375C35 3.21468 34.5391 2.10188 33.7186 1.28141C32.8981 0.460936 31.7853 0 30.625 0ZM32.0833 26.25H23.8671L17.5 31.6313L11.1329 26.25H2.91667V4.375C2.91667 3.98823 3.07031 3.61729 3.3438 3.3438C3.61729 3.07031 3.98823 2.91667 4.375 2.91667H30.625C31.0118 2.91667 31.3827 3.07031 31.6562 3.3438C31.9297 3.61729 32.0833 3.98823 32.0833 4.375V26.25Z" fill="white"/>
<path d="M17.5 7.29163H8.75V10.2083H17.5V7.29163Z" fill="white"/>
<path d="M26.25 13.125H8.75V16.0417H26.25V13.125Z" fill="white"/>
<path d="M26.25 18.9584H8.75V21.875H26.25V18.9584Z" fill="white"/>
</g>
<defs>
<clipPath id="clip0_22_106">
<rect width="35" height="35" fill="white"/>
</clipPath>
</defs>
</svg>
