<svg width="35" height="35" viewBox="0 0 35 35" fill="none" xmlns="http://www.w3.org/2000/svg">
<path d="M14.4052 26.4279C16.1132 28.1371 18.8833 28.1379 20.5924 26.4299C20.5931 26.4292 20.5937 26.4286 20.5944 26.4279L25.2771 21.7452C25.8173 21.1479 25.7708 20.2256 25.1735 19.6854C24.6172 19.1825 23.7702 19.1834 23.215 19.6875L18.948 23.9561L18.9582 1.45838C18.9581 0.6529 18.3052 0 17.4998 0C16.6944 0 16.0415 0.6529 16.0415 1.45831L16.0283 23.9283L11.7846 19.6875C11.2147 19.1181 10.2912 19.1184 9.72177 19.6882C9.15234 20.2581 9.15268 21.1816 9.72253 21.7511L14.4052 26.4279Z" fill="white"/>
<path d="M33.5417 23.3333C32.7363 23.3333 32.0834 23.9862 32.0834 24.7916V30.625C32.0834 31.4304 31.4305 32.0833 30.6251 32.0833H4.375C3.56959 32.0833 2.91669 31.4304 2.91669 30.625V24.7917C2.91669 23.9863 2.26379 23.3334 1.45838 23.3334C0.6529 23.3333 0 23.9863 0 24.7917V30.625C0 33.0412 1.95877 35 4.375 35H30.625C33.0412 35 35 33.0412 35 30.625V24.7917C35 23.9863 34.3471 23.3333 33.5417 23.3333Z" fill="white"/>
</svg>
