<svg width="35" height="35" viewBox="0 0 35 35" fill="none" xmlns="http://www.w3.org/2000/svg">
<g clip-path="url(#clip0_22_85)">
<path d="M27.7083 4.37504H18.1883C17.9628 4.37653 17.7399 4.32666 17.5365 4.22921L12.934 1.91921C12.3264 1.61667 11.657 1.45894 10.9783 1.45837H7.29167C5.35851 1.46069 3.50519 2.22966 2.13824 3.59661C0.771286 4.96356 0.00231563 6.81688 0 8.75004L0 26.25C0.00231563 28.1832 0.771286 30.0365 2.13824 31.4035C3.50519 32.7704 5.35851 33.5394 7.29167 33.5417H27.7083C29.6415 33.5394 31.4948 32.7704 32.8618 31.4035C34.2287 30.0365 34.9977 28.1832 35 26.25V11.6667C34.9977 9.73355 34.2287 7.88023 32.8618 6.51328C31.4948 5.14633 29.6415 4.37736 27.7083 4.37504ZM7.29167 4.37504H10.9783C11.2039 4.37355 11.4268 4.42342 11.6302 4.52087L16.2327 6.82358C16.8397 7.12865 17.509 7.28888 18.1883 7.29171H27.7083C28.5805 7.29313 29.4323 7.55518 30.1544 8.04423C30.8765 8.53327 31.436 9.22697 31.761 10.0363L2.91667 10.1996V8.75004C2.91667 7.58972 3.3776 6.47692 4.19807 5.65645C5.01855 4.83598 6.13134 4.37504 7.29167 4.37504ZM27.7083 30.625H7.29167C6.13134 30.625 5.01855 30.1641 4.19807 29.3436C3.3776 28.5232 2.91667 27.4104 2.91667 26.25V13.1163L32.0833 12.9515V26.25C32.0833 27.4104 31.6224 28.5232 30.8019 29.3436C29.9815 30.1641 28.8687 30.625 27.7083 30.625Z" fill="white"/>
</g>
<defs>
<clipPath id="clip0_22_85">
<rect width="35" height="35" fill="white"/>
</clipPath>
</defs>
</svg>
