<svg width="20" height="20" viewBox="0 0 20 20" fill="none" xmlns="http://www.w3.org/2000/svg">
<g clip-path="url(#clip0_103_1252)">
<path d="M10 9.99994C10.9889 9.99994 11.9556 9.7067 12.7779 9.15729C13.6001 8.60788 14.241 7.82699 14.6194 6.91336C14.9978 5.99973 15.0969 4.99439 14.9039 4.02449C14.711 3.05458 14.2348 2.16367 13.5355 1.46441C12.8363 0.765145 11.9454 0.288941 10.9755 0.0960148C10.0055 -0.0969113 9.00021 0.00210539 8.08658 0.380544C7.17295 0.758982 6.39206 1.39984 5.84265 2.22209C5.29324 3.04434 5 4.01103 5 4.99994C5.00132 6.32562 5.52853 7.59662 6.46593 8.53401C7.40332 9.47141 8.67432 9.99862 10 9.99994ZM10 1.66661C10.6593 1.66661 11.3037 1.8621 11.8519 2.22838C12.4001 2.59465 12.8273 3.11524 13.0796 3.72433C13.3319 4.33342 13.3979 5.00364 13.2693 5.65024C13.1407 6.29685 12.8232 6.89079 12.357 7.35696C11.8908 7.82314 11.2969 8.14061 10.6503 8.26923C10.0037 8.39784 9.33348 8.33183 8.72439 8.07954C8.1153 7.82725 7.59471 7.40001 7.22843 6.85184C6.86216 6.30368 6.66667 5.65921 6.66667 4.99994C6.66667 4.11589 7.01786 3.26804 7.64298 2.64292C8.2681 2.0178 9.11594 1.66661 10 1.66661Z" fill="white"/>
<path d="M10 11.6667C8.01155 11.6689 6.10518 12.4598 4.69914 13.8658C3.29309 15.2719 2.50221 17.1782 2.5 19.1667C2.5 19.3877 2.5878 19.5997 2.74408 19.7559C2.90036 19.9122 3.11232 20 3.33333 20C3.55435 20 3.76631 19.9122 3.92259 19.7559C4.07887 19.5997 4.16667 19.3877 4.16667 19.1667C4.16667 17.6196 4.78125 16.1359 5.87521 15.0419C6.96917 13.9479 8.4529 13.3334 10 13.3334C11.5471 13.3334 13.0308 13.9479 14.1248 15.0419C15.2188 16.1359 15.8333 17.6196 15.8333 19.1667C15.8333 19.3877 15.9211 19.5997 16.0774 19.7559C16.2337 19.9122 16.4457 20 16.6667 20C16.8877 20 17.0996 19.9122 17.2559 19.7559C17.4122 19.5997 17.5 19.3877 17.5 19.1667C17.4978 17.1782 16.7069 15.2719 15.3009 13.8658C13.8948 12.4598 11.9884 11.6689 10 11.6667Z" fill="white"/>
</g>
<defs>
<clipPath id="clip0_103_1252">
<rect width="20" height="20" fill="white"/>
</clipPath>
</defs>
</svg>
