<svg width="20" height="20" viewBox="0 0 20 20" fill="none" xmlns="http://www.w3.org/2000/svg">
<g clip-path="url(#clip0_103_1236)">
<path d="M5.83333 0H3.33333C2.44928 0 1.60143 0.35119 0.976311 0.976311C0.35119 1.60143 0 2.44928 0 3.33333L0 5.83333C0 6.71739 0.35119 7.56524 0.976311 8.19036C1.60143 8.81548 2.44928 9.16667 3.33333 9.16667H5.83333C6.71739 9.16667 7.56524 8.81548 8.19036 8.19036C8.81548 7.56524 9.16667 6.71739 9.16667 5.83333V3.33333C9.16667 2.44928 8.81548 1.60143 8.19036 0.976311C7.56524 0.35119 6.71739 0 5.83333 0V0ZM7.5 5.83333C7.5 6.27536 7.32441 6.69928 7.01184 7.01184C6.69928 7.32441 6.27536 7.5 5.83333 7.5H3.33333C2.89131 7.5 2.46738 7.32441 2.15482 7.01184C1.84226 6.69928 1.66667 6.27536 1.66667 5.83333V3.33333C1.66667 2.89131 1.84226 2.46738 2.15482 2.15482C2.46738 1.84226 2.89131 1.66667 3.33333 1.66667H5.83333C6.27536 1.66667 6.69928 1.84226 7.01184 2.15482C7.32441 2.46738 7.5 2.89131 7.5 3.33333V5.83333Z" fill="white"/>
<path d="M16.6668 0H14.1668C13.2828 0 12.4349 0.35119 11.8098 0.976311C11.1847 1.60143 10.8335 2.44928 10.8335 3.33333V5.83333C10.8335 6.71739 11.1847 7.56524 11.8098 8.19036C12.4349 8.81548 13.2828 9.16667 14.1668 9.16667H16.6668C17.5509 9.16667 18.3987 8.81548 19.0239 8.19036C19.649 7.56524 20.0002 6.71739 20.0002 5.83333V3.33333C20.0002 2.44928 19.649 1.60143 19.0239 0.976311C18.3987 0.35119 17.5509 0 16.6668 0V0ZM18.3335 5.83333C18.3335 6.27536 18.1579 6.69928 17.8453 7.01184C17.5328 7.32441 17.1089 7.5 16.6668 7.5H14.1668C13.7248 7.5 13.3009 7.32441 12.9883 7.01184C12.6758 6.69928 12.5002 6.27536 12.5002 5.83333V3.33333C12.5002 2.89131 12.6758 2.46738 12.9883 2.15482C13.3009 1.84226 13.7248 1.66667 14.1668 1.66667H16.6668C17.1089 1.66667 17.5328 1.84226 17.8453 2.15482C18.1579 2.46738 18.3335 2.89131 18.3335 3.33333V5.83333Z" fill="white"/>
<path d="M5.83333 10.8333H3.33333C2.44928 10.8333 1.60143 11.1845 0.976311 11.8097C0.35119 12.4348 0 13.2826 0 14.1667L0 16.6667C0 17.5507 0.35119 18.3986 0.976311 19.0237C1.60143 19.6488 2.44928 20 3.33333 20H5.83333C6.71739 20 7.56524 19.6488 8.19036 19.0237C8.81548 18.3986 9.16667 17.5507 9.16667 16.6667V14.1667C9.16667 13.2826 8.81548 12.4348 8.19036 11.8097C7.56524 11.1845 6.71739 10.8333 5.83333 10.8333ZM7.5 16.6667C7.5 17.1087 7.32441 17.5326 7.01184 17.8452C6.69928 18.1577 6.27536 18.3333 5.83333 18.3333H3.33333C2.89131 18.3333 2.46738 18.1577 2.15482 17.8452C1.84226 17.5326 1.66667 17.1087 1.66667 16.6667V14.1667C1.66667 13.7246 1.84226 13.3007 2.15482 12.9882C2.46738 12.6756 2.89131 12.5 3.33333 12.5H5.83333C6.27536 12.5 6.69928 12.6756 7.01184 12.9882C7.32441 13.3007 7.5 13.7246 7.5 14.1667V16.6667Z" fill="white"/>
<path d="M16.6668 10.8333H14.1668C13.2828 10.8333 12.4349 11.1845 11.8098 11.8097C11.1847 12.4348 10.8335 13.2826 10.8335 14.1667V16.6667C10.8335 17.5507 11.1847 18.3986 11.8098 19.0237C12.4349 19.6488 13.2828 20 14.1668 20H16.6668C17.5509 20 18.3987 19.6488 19.0239 19.0237C19.649 18.3986 20.0002 17.5507 20.0002 16.6667V14.1667C20.0002 13.2826 19.649 12.4348 19.0239 11.8097C18.3987 11.1845 17.5509 10.8333 16.6668 10.8333ZM18.3335 16.6667C18.3335 17.1087 18.1579 17.5326 17.8453 17.8452C17.5328 18.1577 17.1089 18.3333 16.6668 18.3333H14.1668C13.7248 18.3333 13.3009 18.1577 12.9883 17.8452C12.6758 17.5326 12.5002 17.1087 12.5002 16.6667V14.1667C12.5002 13.7246 12.6758 13.3007 12.9883 12.9882C13.3009 12.6756 13.7248 12.5 14.1668 12.5H16.6668C17.1089 12.5 17.5328 12.6756 17.8453 12.9882C18.1579 13.3007 18.3335 13.7246 18.3335 14.1667V16.6667Z" fill="white"/>
</g>
<defs>
<clipPath id="clip0_103_1236">
<rect width="20" height="20" fill="white"/>
</clipPath>
</defs>
</svg>
