<svg width="20" height="20" viewBox="0 0 20 20" fill="none" xmlns="http://www.w3.org/2000/svg">
<g clip-path="url(#clip0_103_1244)">
<path d="M19.1667 18.3333H2.5C2.27899 18.3333 2.06702 18.2455 1.91074 18.0893C1.75446 17.933 1.66667 17.721 1.66667 17.5V0.833333C1.66667 0.61232 1.57887 0.400358 1.42259 0.244078C1.26631 0.0877974 1.05435 0 0.833333 0C0.61232 0 0.400358 0.0877974 0.244078 0.244078C0.0877974 0.400358 0 0.61232 0 0.833333L0 17.5C0 18.163 0.263392 18.7989 0.732233 19.2678C1.20107 19.7366 1.83696 20 2.5 20H19.1667C19.3877 20 19.5996 19.9122 19.7559 19.7559C19.9122 19.5996 20 19.3877 20 19.1667C20 18.9457 19.9122 18.7337 19.7559 18.5774C19.5996 18.4211 19.3877 18.3333 19.1667 18.3333Z" fill="white"/>
<path d="M12.4998 16.6667C12.7209 16.6667 12.9328 16.5789 13.0891 16.4226C13.2454 16.2663 13.3332 16.0543 13.3332 15.8333V9.99999C13.3332 9.77898 13.2454 9.56701 13.0891 9.41073C12.9328 9.25445 12.7209 9.16666 12.4998 9.16666C12.2788 9.16666 12.0669 9.25445 11.9106 9.41073C11.7543 9.56701 11.6665 9.77898 11.6665 9.99999V15.8333C11.6665 16.0543 11.7543 16.2663 11.9106 16.4226C12.0669 16.5789 12.2788 16.6667 12.4998 16.6667Z" fill="white"/>
<path d="M5.83333 16.6667C6.05435 16.6667 6.26631 16.5789 6.42259 16.4226C6.57887 16.2663 6.66667 16.0543 6.66667 15.8333V9.99999C6.66667 9.77898 6.57887 9.56701 6.42259 9.41073C6.26631 9.25445 6.05435 9.16666 5.83333 9.16666C5.61232 9.16666 5.40036 9.25445 5.24408 9.41073C5.0878 9.56701 5 9.77898 5 9.99999V15.8333C5 16.0543 5.0878 16.2663 5.24408 16.4226C5.40036 16.5789 5.61232 16.6667 5.83333 16.6667Z" fill="white"/>
<path d="M15.8333 16.6667C16.0543 16.6667 16.2663 16.5789 16.4226 16.4226C16.5789 16.2663 16.6667 16.0543 16.6667 15.8333V5.83333C16.6667 5.61232 16.5789 5.40036 16.4226 5.24408C16.2663 5.0878 16.0543 5 15.8333 5C15.6123 5 15.4004 5.0878 15.2441 5.24408C15.0878 5.40036 15 5.61232 15 5.83333V15.8333C15 16.0543 15.0878 16.2663 15.2441 16.4226C15.4004 16.5789 15.6123 16.6667 15.8333 16.6667Z" fill="white"/>
<path d="M9.16683 16.6667C9.38784 16.6667 9.5998 16.5789 9.75609 16.4226C9.91237 16.2663 10.0002 16.0543 10.0002 15.8333V5.83333C10.0002 5.61232 9.91237 5.40036 9.75609 5.24408C9.5998 5.0878 9.38784 5 9.16683 5C8.94582 5 8.73385 5.0878 8.57757 5.24408C8.42129 5.40036 8.3335 5.61232 8.3335 5.83333V15.8333C8.3335 16.0543 8.42129 16.2663 8.57757 16.4226C8.73385 16.5789 8.94582 16.6667 9.16683 16.6667Z" fill="white"/>
</g>
<defs>
<clipPath id="clip0_103_1244">
<rect width="20" height="20" fill="white"/>
</clipPath>
</defs>
</svg>
