<svg width="35" height="35" viewBox="0 0 35 35" fill="none" xmlns="http://www.w3.org/2000/svg">
<g clip-path="url(#clip0_22_74)">
<path d="M27.0973 3.1207L17.9608 0.0742379C17.6617 -0.025397 17.3383 -0.025397 17.0392 0.0742379L7.90271 3.1207C6.45007 3.60323 5.18644 4.53128 4.29136 5.77298C3.39627 7.01468 2.91526 8.50689 2.91667 10.0376V17.4999C2.91667 28.5292 16.3333 34.6207 16.9079 34.8744C17.0943 34.9573 17.296 35 17.5 35C17.704 35 17.9057 34.9573 18.0921 34.8744C18.6667 34.6207 32.0833 28.5292 32.0833 17.4999V10.0376C32.0847 8.50689 31.6037 7.01468 30.7086 5.77298C29.8136 4.53128 28.5499 3.60323 27.0973 3.1207ZM29.1667 17.4999C29.1667 25.4551 19.9515 30.673 17.5 31.9213C15.0456 30.6774 5.83333 25.4755 5.83333 17.4999V10.0376C5.83342 9.11923 6.12248 8.22419 6.65957 7.47928C7.19667 6.73437 7.95454 6.17735 8.82583 5.88715L17.5 2.99528L26.1742 5.88715C27.0455 6.17735 27.8033 6.73437 28.3404 7.47928C28.8775 8.22419 29.1666 9.11923 29.1667 10.0376V17.4999Z" fill="white"/>
<path d="M22.3125 12.1042L16.205 18.2292L12.9325 14.8167C12.8012 14.6731 12.6424 14.5572 12.4656 14.4759C12.2888 14.3946 12.0976 14.3495 11.9031 14.3433C11.7086 14.3371 11.5148 14.3698 11.3332 14.4396C11.1515 14.5095 10.9857 14.6149 10.8454 14.7498C10.7052 14.8847 10.5934 15.0463 10.5165 15.2251C10.4397 15.4039 10.3994 15.5962 10.3981 15.7908C10.3967 15.9854 10.4344 16.1783 10.5087 16.3581C10.5831 16.538 10.6927 16.7011 10.831 16.8379L14.194 20.3379C14.4448 20.6088 14.7479 20.826 15.085 20.9764C15.4222 21.1268 15.7863 21.2073 16.1554 21.2129H16.2035C16.5653 21.2141 16.9237 21.1434 17.2579 21.005C17.5921 20.8665 17.8955 20.6631 18.1504 20.4064L24.3804 14.1764C24.5165 14.0407 24.6245 13.8794 24.6982 13.7019C24.772 13.5244 24.81 13.3341 24.8102 13.1418C24.8104 12.9496 24.7728 12.7592 24.6994 12.5816C24.626 12.4039 24.5184 12.2424 24.3826 12.1063C24.2468 11.9703 24.0856 11.8623 23.9081 11.7885C23.7305 11.7148 23.5402 11.6767 23.348 11.6765C23.1558 11.6763 22.9654 11.714 22.7877 11.7873C22.6101 11.8607 22.4486 11.9684 22.3125 12.1042Z" fill="white"/>
</g>
<defs>
<clipPath id="clip0_22_74">
<rect width="35" height="35" fill="white"/>
</clipPath>
</defs>
</svg>
